HIERARCHY
ROOT Hips
{
  OFFSET 13.6774 106.653 -34.4427
  CHANNELS 6 Xposition Yposition Zposition Zrotation Xrotation Yrotation
  JOINT ToSpine
  {
    OFFSET -2.69724 7.43032 -0.144315
    CHANNELS 3 Zrotation Xrotation Yrotation
    JOINT Spine
    {
      OFFSET -0.0310711 10.7595 1.96963
      CHANNELS 3 Zrotation Xrotation Yrotation
      JOINT Spine1
      {
        OFFSET 19.9056 3.91189 0.764692
        CHANNELS 3 Zrotation Xrotation Yrotation
        JOINT Neck
        {
          OFFSET 25.9749 7.03908 -0.130764
          CHANNELS 3 Zrotation Xrotation Yrotation
          JOINT Head
          {
            OFFSET 9.52751 0.295786 -0.907742
            CHANNELS 3 Zrotation Xrotation Yrotation
            End Site
            {
              OFFSET 16.4037 0.713936 2.7358
            }
          }
        }
        JOINT LeftShoulder
        {
          OFFSET 17.7449 4.33886 11.7777
          CHANNELS 3 Zrotation Xrotation Yrotation
          JOINT LeftArm
          {
            OFFSET 0.911315 1.27913 9.80584
            CHANNELS 3 Zrotation Xrotation Yrotation
            JOINT LeftForeArm
            {
              OFFSET 28.6126 1.18197 -3.53199
              CHANNELS 3 Zrotation Xrotation Yrotation
              JOINT LeftHand
              {
                OFFSET 27.5088 0.0218783 0.327423
                CHANNELS 3 Zrotation Xrotation Yrotation
                End Site
                {
                  OFFSET 18.6038 -0.000155887 0.382096
                }
              }
            }
          }
        }
        JOINT RightShoulder
        {
          OFFSET 17.1009 2.89543 -12.2328
          CHANNELS 3 Zrotation Xrotation Yrotation
          JOINT RightArm
          {
            OFFSET 1.4228 0.178766 -10.211
            CHANNELS 3 Zrotation Xrotation Yrotation
            JOINT RightForeArm
            {
              OFFSET 28.733 1.87905 2.64907
              CHANNELS 3 Zrotation Xrotation Yrotation
              JOINT RightHand
              {
                OFFSET 27.4588 0.290562 -0.101845
                CHANNELS 3 Zrotation Xrotation Yrotation
                End Site
                {
                  OFFSET 17.8396 -0.255518 -0.000602873
                }
              }
            }
          }
        }
      }
    }
  }
  JOINT LeftUpLeg
  {
    OFFSET -5.61296 -2.22332 -10.2353
    CHANNELS 3 Zrotation Xrotation Yrotation
    JOINT LeftLeg
    {
      OFFSET 2.56703 -44.7417 -7.93097
      CHANNELS 3 Zrotation Xrotation Yrotation
      JOINT LeftFoot
      {
        OFFSET 3.16933 -46.5642 -3.96578
        CHANNELS 3 Zrotation Xrotation Yrotation
        JOINT LeftToeBase
        {
          OFFSET 0.346054 -6.02161 12.8035
          CHANNELS 3 Zrotation Xrotation Yrotation
          End Site
          {
            OFFSET 0.134235 -1.35082 5.13018
          }
        }
      }
    }
  }
  JOINT RightUpLeg
  {
    OFFSET -5.7928 -1.72406 10.6446
    CHANNELS 3 Zrotation Xrotation Yrotation
    JOINT RightLeg
    {
      OFFSET -2.57161 -44.7178 -7.85259
      CHANNELS 3 Zrotation Xrotation Yrotation
      JOINT RightFoot
      {
        OFFSET -3.10148 -46.5936 -4.03391
        CHANNELS 3 Zrotation Xrotation Yrotation
        JOINT RightToeBase
        {
          OFFSET -0.0828122 -6.13587 12.8035
          CHANNELS 3 Zrotation Xrotation Yrotation
          End Site
          {
            OFFSET -0.131328 -1.35082 5.13018
          }
        }
      }
    }
  }
}
MOTION
Frames: 21
Frame Time: 0.03333333333333333
0.0000 93.1000 0.0000 -52.7407 -2.5882 170.8987 -70.6672 -1.1239 87.2452 147.7937 68.3592 -61.6112 0.4397 29.6265 -7.1950 -162.9337 25.6965 171.0732 -154.1382 63.6790 177.0253 0.4078 -4.4059 -24.0507 -92.1376 49.9931 -57.9283 -4.6103 27.8330 -8.9506 10.0836 -0.9059 -6.3301 -0.9179 1.3899 11.7806 -93.6402 -51.0026 114.0962 13.0755 1.0566 100.6883 9.6669 -0.3698 4.1895 7.0125 1.3760 97.8674 -95.1451 84.9169 81.3258 3.1585 0.4896 -0.8368 -8.9042 -40.5636 13.8782 -65.8718 3.6000 94.6074 2.9790 41.3590 11.6214 -7.8058 -8.3784 0.4639 -19.3978 18.6828 20.5096 
0.0000 93.1000 0.0000 -52.0040 -5.5874 171.5511 -70.7422 -0.1755 87.2441 140.9762 68.8497 -54.2969 3.4057 28.3630 -10.0588 -161.1502 25.0273 168.5862 -152.2456 63.9410 175.0267 0.8537 -3.9978 -24.4207 -87.0463 48.6123 -68.1170 -4.3109 23.2701 -10.0630 8.4637 -0.6693 -7.2873 -0.1767 0.0202 13.6540 -86.0983 -49.7161 114.5479 15.2124 2.5453 102.5116 9.0655 -0.6985 5.1535 2.8382 1.5340 101.4398 -35.0907 83.5628 22.8926 3.6724 2.0758 -2.1135 -8.9082 -38.4412 13.7094 -67.6307 2.9670 90.0723 2.0445 43.1848 6.7565 -4.1073 0.6336 0.6296 -39.1531 43.2752 39.7078 
0.0000 93.1000 0.0000 -53.6716 -4.6183 173.3900 -70.8331 -0.0153 87.3165 135.6366 69.6208 -49.6550 7.9496 27.1897 -10.0911 -160.7475 23.7676 168.6192 -153.0513 62.4989 176.0629 1.2431 -2.0381 -27.9072 -70.3994 46.5102 -90.7784 -1.5544 7.4364 -16.6602 8.3856 -0.3135 -6.8922 0.3571 0.1742 17.1113 -75.0445 -48.9163 114.2597 20.7615 0.8159 94.5274 8.8443 -1.0295 4.8103 -5.8671 1.0529 100.7205 -24.3151 79.4799 10.8405 3.5768 3.2760 -2.4187 -9.0460 -37.2956 15.6993 -60.9715 5.5950 87.8557 4.7515 65.1750 -4.1066 -4.0721 1.5637 0.3029 -30.7030 48.4184 19.8654 
0.0000 93.1000 0.0000 -55.9437 -4.4602 170.0000 -70.9100 -1.6789 87.2805 134.6289 68.7147 -54.0797 10.4395 25.9708 -10.0188 -163.1702 22.8673 169.2193 -153.8354 61.7008 177.2815 0.7988 0.0387 -29.0850 -72.5446 38.2833 -100.9895 3.2786 3.4953 -23.7852 9.8394 -0.7108 -5.8182 -1.1321 0.6975 20.9350 -65.6569 -51.8260 112.1506 20.3308 -5.0403 77.2396 6.4206 -0.6281 2.3996 -19.8546 -2.9806 100.7323 -13.1899 73.6762 -3.4788 3.8351 1.2998 -0.4570 -10.1856 -42.0570 12.9147 -52.5952 6.0071 90.1477 107.8923 84.8541 -109.2189 -5.4254 -0.1199 -2.0716 -15.0770 41.7225 -2.1792 
0.0000 93.1000 0.0000 -57.7934 -7.4920 164.0549 -71.1658 0.4787 86.9304 132.7121 66.5904 -57.8627 8.1592 25.1719 -7.8484 -164.7714 23.2406 170.8752 -157.8599 61.4126 -179.2898 2.5239 1.5166 -30.7315 -79.5275 30.7221 -111.9565 3.9743 4.3184 -26.9550 12.6927 -2.0155 -6.8270 -0.0078 0.4839 25.1562 -63.9580 -56.0284 104.8279 19.1961 -13.2077 54.5771 8.3494 0.8385 1.5302 -29.3200 -10.4883 100.5566 -9.3359 69.1015 -5.3110 5.6481 1.8206 -0.7428 -10.7887 -46.7618 11.3977 -39.4996 2.0051 91.5890 168.1735 65.9336 -167.4136 -6.9509 -3.4760 0.2184 1.1325 30.0618 -19.6339 
0.0000 93.1000 0.0000 -55.5470 -13.3618 165.3505 -71.2178 -0.0607 87.1047 127.7945 65.3797 -53.8431 2.8280 23.0558 -5.6692 -164.8225 22.7283 171.2130 -158.4265 62.7991 -178.4181 2.5305 1.1238 -28.9744 -91.0972 31.5709 -120.9380 7.9134 7.5375 -37.6079 13.4192 -2.5703 -5.1489 -0.8607 0.6259 26.7679 -73.7833 -61.3070 82.2991 21.0317 -19.5657 44.8197 8.7614 1.4095 -0.3549 -34.3572 -16.0777 94.2107 -7.0608 64.5937 -8.0670 4.7528 0.1810 0.7882 -10.6861 -47.5899 10.1043 -18.2841 -0.8585 92.0315 169.8657 52.5142 -172.9110 -7.4786 -6.3095 -0.1531 6.9336 8.4158 -24.3854 
0.0000 93.1000 0.0000 -54.5889 -13.8557 169.0860 -71.0567 1.7698 87.5272 123.8079 65.5867 -49.6965 -1.4120 21.6168 -1.3997 -163.5060 21.6486 171.5103 -159.2665 61.7456 -178.9774 3.6361 1.5576 -25.5719 -97.1039 37.6548 -127.6154 13.8489 9.7069 -52.8930 15.4974 -3.0033 -6.5750 0.3020 1.1389 24.6744 -74.0728 -65.0949 66.8105 21.4326 -20.3443 45.4008 9.1650 1.8074 0.4358 -45.5613 -13.0379 90.9018 -4.9229 56.9911 -13.4795 6.4943 -2.1383 -0.7585 -10.6771 -46.9637 12.2936 -3.2022 1.1273 92.7558 169.6204 53.7620 -171.2780 -9.1896 -5.9199 2.4454 10.4842 -11.8717 -20.6645 
0.0000 93.1000 0.0000 -53.7292 -12.4263 175.3843 -70.8755 -0.2837 88.1137 118.9176 65.2416 -41.5329 -3.5746 20.2259 0.8968 -162.8335 20.2718 173.5862 -156.4222 58.6979 177.2045 1.9831 0.7716 -23.0789 -97.2597 39.6026 -127.6889 21.6027 7.4614 -69.5363 15.7830 -2.2179 -5.5201 -1.1299 3.2581 21.8096 -74.2497 -68.5630 55.7331 15.7659 -13.8814 44.8467 8.4703 1.0536 1.1401 -58.7589 -8.5212 82.8164 -4.0341 44.6120 -13.5669 3.3096 -3.9954 0.3200 -7.4438 -35.6115 13.3453 5.8633 1.7716 91.6121 166.5091 66.8221 -166.2511 -8.3380 -6.6267 0.5747 9.6341 -22.0633 -18.2559 
0.0000 93.1000 0.0000 -54.4614 -9.1055 -179.6387 -70.5240 -0.0992 87.5326 120.9181 64.9602 -38.9314 -2.9228 19.0386 4.1898 -163.5555 18.9867 172.0519 -155.1623 56.9450 171.1507 1.6675 1.8027 -22.1854 -91.3075 39.5066 -125.9914 24.1272 4.0186 -79.8402 15.7473 -2.2596 -7.6650 -1.2003 4.5320 21.0380 -80.0842 -67.4925 48.0743 5.9538 -5.1849 41.8354 7.9026 0.6020 1.8957 -69.7239 -1.2059 85.1587 0.6992 38.1325 -15.1889 -2.4936 3.4358 1.2199 -3.7480 -2.9389 7.6053 5.2287 2.8997 88.0450 99.1517 85.1160 -96.4091 -7.6148 -8.2614 0.8899 10.7923 -25.9136 -17.1798 
0.0000 93.1000 0.0000 -55.5849 -4.7171 -178.4793 -70.6145 -0.3670 87.6543 122.8346 65.6040 -39.7237 0.0245 19.1517 5.4664 -165.8305 17.6321 171.8995 -153.9449 54.4878 170.1387 1.6521 2.0066 -22.8687 -83.7378 38.6069 -123.8628 23.0776 3.6030 -78.5023 14.4609 -1.5145 -6.0545 -0.9394 4.0919 23.8429 -82.1039 -61.0418 50.9403 -1.0942 2.3786 41.2655 6.8226 -0.1452 1.9639 -69.8554 -2.2030 79.6804 -3.3578 50.2329 -7.6659 -0.7902 6.7559 0.8457 -5.4423 -7.2155 14.2406 0.9044 2.9800 85.5967 8.9975 72.5059 -4.1590 -8.1371 -5.2276 0.4425 11.1427 -29.4788 -16.5903 
0.0000 93.1000 0.0000 -58.8624 -0.5027 -177.3852 -70.5961 -0.7972 87.4215 126.8736 64.6145 -40.3334 4.6884 20.4225 4.0507 -166.9426 16.2785 172.4155 -151.6532 52.6605 168.0803 1.3430 2.3527 -25.1282 -78.5869 38.5978 -119.9451 17.8096 8.9179 -61.6828 13.4837 -0.9890 -6.3334 -0.8493 3.0307 26.0580 -82.9296 -56.7816 61.0468 -2.9451 5.3656 43.9752 7.4626 -0.7947 1.8899 -64.2935 -4.9878 80.7443 -14.8123 75.6988 5.7905 -1.4126 7.9181 0.3612 -5.4548 -15.1032 14.1461 -4.1393 1.9874 79.9787 8.2181 68.5598 -1.3126 -7.3270 -4.7016 0.0247 10.1737 -23.8932 -13.8780 
0.0000 93.1000 0.0000 -63.7388 4.6379 -174.7351 -70.8441 -0.8818 87.6442 137.0153 63.7017 -46.6583 7.6235 21.6279 3.0903 -165.5178 14.7936 173.6531 -148.6449 51.8352 166.9937 1.4558 1.7741 -28.3046 -73.6605 39.8107 -116.9999 13.6032 16.4971 -36.5999 10.3060 -0.8523 -6.3520 -1.0585 1.3098 28.6779 -84.9965 -52.0879 73.1027 -2.7899 4.2464 46.5583 6.6052 -0.7823 2.4115 -56.8411 -1.6768 84.6921 -157.3553 76.7943 148.7252 0.6563 7.7322 0.0094 -6.3872 -20.3280 13.1275 -15.6030 5.7408 73.6479 8.1476 68.7333 0.6748 -6.8354 -7.3258 -0.4959 7.8161 -9.7498 -15.6483 
0.0000 93.1000 0.0000 -66.0906 11.3859 -169.2552 -70.9839 -0.9534 87.4556 144.9738 63.6241 -49.2373 6.6230 22.7465 4.6158 -165.9343 14.6876 174.7708 -146.5377 51.0044 167.9729 1.3451 2.4533 -30.5686 -76.3689 41.5410 -107.9328 6.5601 32.6587 -17.6059 9.7031 -0.5696 -5.1907 -0.8604 -0.6302 27.5901 -84.3036 -49.5311 86.8317 -0.7030 2.0752 52.1113 5.7235 -1.1195 2.5519 -41.9816 2.7385 81.9677 -170.2713 58.1278 161.7247 4.2493 5.8743 -0.7796 -6.8999 -22.8605 12.8233 -25.9790 12.5353 68.8222 8.4557 68.3009 4.9043 -7.1089 -6.0376 -0.5549 9.6679 -20.5788 -18.7065 
0.0000 93.1000 0.0000 -63.9878 14.9134 -169.5569 -70.8587 0.1511 87.5114 144.9039 65.7509 -47.4137 4.0836 24.4539 5.5346 -165.9522 14.2125 174.6550 -147.7034 50.5026 167.0552 2.3261 1.2713 -30.5262 -82.9442 41.7879 -91.8901 -0.9949 45.9469 -10.4290 6.8422 -1.3612 -4.9982 -0.4001 -0.5326 24.1404 -83.4302 -52.7787 96.5263 3.2862 -0.7820 62.9490 6.2862 0.0264 3.6674 -21.1883 1.5372 76.8746 -170.9175 47.6082 165.9109 5.3483 5.2696 -0.5845 -7.0255 -25.9660 11.8706 -34.0514 15.1066 71.0588 9.4688 67.8626 6.6159 -8.6217 -10.8494 0.4619 11.7458 -29.0307 -18.5359 
0.0000 93.1000 0.0000 -62.6945 18.0175 -169.5103 -70.7854 0.2557 87.1910 144.8638 68.4407 -44.5584 1.8144 25.6945 4.5491 -163.8814 14.6876 172.8324 -146.1255 50.0228 165.0529 2.3893 0.4597 -28.3210 -80.3275 43.4224 -83.8055 -5.3150 49.5498 -7.7094 8.0226 -1.8938 -5.5696 -0.7069 -0.8459 22.6585 -76.5942 -52.1855 107.8328 7.0550 -2.1288 74.8653 7.0947 0.6791 4.6425 -5.0689 0.1744 75.7281 -170.7189 53.1096 167.7224 6.3840 2.9509 -0.5380 -6.7570 -25.9731 12.1576 -46.6241 17.3473 80.1048 7.3316 62.0519 12.7230 -9.9777 -15.3706 0.8955 12.0852 -31.2527 -17.0557 
0.0000 93.1000 0.0000 -64.1580 17.0676 -174.6831 -70.7125 0.3444 87.2085 135.9774 71.1772 -41.2414 0.4851 25.1830 5.4143 -159.9342 15.0030 171.6293 -148.7069 50.4716 167.1764 2.1748 -0.8587 -26.5047 -83.2923 45.7568 -75.0564 -13.8382 56.3991 1.1594 11.1921 -1.4769 -6.5063 -0.2135 -1.7384 21.2229 -73.9020 -51.0213 109.1922 10.8867 -2.0057 83.2794 8.9916 0.3823 6.9116 2.6976 -2.5686 79.6466 -167.9557 70.3469 168.1715 5.9401 4.8980 -1.1250 -7.8340 -31.3334 10.7975 -63.0134 13.3818 87.8584 4.5309 51.2310 12.3315 -11.2049 -14.6967 1.8241 8.7061 -23.9269 -15.2224 
0.0000 93.1000 0.0000 -65.8809 13.4748 -177.3449 -70.6040 -0.3390 87.0831 131.9092 72.7738 -41.1888 0.1312 24.7739 3.6667 -157.1212 15.9932 171.1678 -148.7829 52.7856 167.3133 1.2294 -1.5853 -25.0855 -75.1450 46.3642 -78.0707 -12.0367 53.4045 -1.4934 8.0986 -1.1196 -7.3054 -0.1295 -2.8524 22.2037 -74.7857 -52.0352 103.1722 13.8353 -1.7185 86.0872 8.5255 -0.1411 6.4250 1.7599 -5.9010 83.8496 -28.8923 82.3136 29.2865 4.1526 6.2642 -0.8607 -8.3859 -30.9929 10.3159 -76.8267 7.4008 89.1453 3.4659 42.9669 10.3523 -7.4814 -9.2089 0.5382 -2.4116 5.2902 0.0888 
0.0000 93.1000 0.0000 -68.0661 13.1838 -175.9009 -70.8338 0.0463 87.1447 131.6983 73.3140 -37.6191 3.4334 25.1760 1.1245 -155.0479 15.6604 172.1036 -150.6156 52.7541 170.5022 1.4685 -1.3110 -26.1695 -70.9783 46.7661 -81.0039 -9.3248 46.3531 -5.3671 8.4327 -1.2378 -7.3636 0.1417 -3.6467 24.6559 -75.6118 -51.4240 96.1442 14.2292 -3.5279 80.8235 7.1069 -0.0055 5.2761 -3.8944 -3.8104 85.9825 -4.2871 58.3838 3.3450 2.6242 12.4423 -0.1387 -7.0600 -26.9427 8.9268 -79.2156 6.5412 93.0374 3.0044 51.4168 6.9093 -6.9683 -3.6094 0.2871 -0.2902 20.3730 -14.2111 
0.0000 93.1000 0.0000 -70.9385 15.3132 -175.6820 -70.8270 0.5189 87.0150 132.8616 72.8640 -41.8979 6.5518 24.9885 -0.4977 -155.0625 15.0612 173.2242 -151.7108 51.7237 170.6486 1.8277 -0.6933 -26.7200 -60.2904 49.5297 -89.0599 -4.3025 30.2841 -11.6606 8.5596 -1.3493 -7.0097 0.4187 -3.3667 25.1507 -76.0765 -51.7967 91.1367 13.7860 -5.0732 70.9579 7.2572 0.1828 4.5666 -12.1262 0.0732 92.5327 -3.0620 46.0675 -2.6821 2.2163 12.0808 0.0960 -5.5890 -17.3408 10.9485 -75.1103 4.7447 95.9894 8.2347 71.8319 -5.9007 -6.5848 -1.1404 0.2611 6.3002 8.3945 -22.1196 
0.0000 93.1000 0.0000 -75.1018 16.1857 -176.6973 -70.9860 0.0550 87.0580 131.8852 72.4558 -44.2719 7.7846 24.5263 -0.2620 -153.0608 14.0317 173.9697 -149.9389 50.6416 171.7096 1.3219 0.9928 -27.3616 -55.1197 48.6037 -95.1591 -2.0524 21.9478 -13.8344 9.1677 -0.9803 -7.5817 0.1852 -3.7889 27.2214 -72.7726 -51.1978 89.1203 13.2580 -7.1808 59.2099 7.1737 -0.3691 3.5446 -17.1794 2.0960 101.0382 -3.7474 55.7919 -0.7494 3.2664 14.0989 -0.3368 -6.2639 -17.0321 9.8311 -66.9283 1.8750 98.2857 140.8723 83.6560 -141.8679 -7.0791 -4.0985 0.5410 8.7873 -0.3235 -23.0980 
0.0000 93.1000 0.0000 -77.8575 10.1493 -177.9033 -70.7722 -0.2270 87.2098 127.6728 68.0974 -44.0867 8.1785 21.0496 1.2311 -156.2359 13.2245 174.9131 -150.2149 49.7755 170.2594 1.5307 1.6726 -27.7911 -67.4238 43.7392 -95.2856 -2.9913 27.7033 -12.4416 8.0823 -1.0356 -6.9534 0.3184 -3.0746 26.9922 -74.9425 -52.3105 83.1777 14.9366 -11.8903 49.8830 8.1776 -0.2448 2.1405 -20.2549 -5.9321 101.1697 -6.6246 69.0718 5.2274 7.8195 14.8283 -1.0226 -9.0673 -32.6891 8.0024 -54.9138 -4.1535 97.0542 166.8755 69.3721 -166.8152 -6.8025 -5.6931 0.6585 10.0718 -14.9960 -25.0624 
